<svg width="210" height="270" viewBox="0 0 210 270" fill="none" xmlns="http://www.w3.org/2000/svg">
<path d="M202.999 137.19H7.00082C6.03775 137.19 5.24753 137.961 5.24753 138.928V208.294C5.24753 209.248 6.0254 210.031 7.00082 210.031H19.2492C20.2123 210.031 21.0025 209.26 21.0025 208.294V204.831H188.998V208.294C188.998 209.248 189.775 210.031 190.751 210.031H202.999C203.962 210.031 204.752 209.26 204.752 208.294V138.928C204.752 137.973 203.975 137.19 202.999 137.19ZM21.0025 189.218V152.803H188.998V189.218H21.0025ZM208.592 11.1592L195.665 0.477205C194.887 -0.159068 193.615 -0.159068 192.837 0.477205L181.651 9.7154L178.502 12.3094H2.62994C1.18532 12.3094 0 13.4719 0 14.9157V25.3163C0 26.7479 1.17298 27.9226 2.62994 27.9226H124.41L69.8477 59.1367H7.00082C6.03775 59.1367 5.24753 59.9076 5.24753 60.8742V125.04C5.24753 125.994 6.0254 126.777 7.00082 126.777H202.999C203.962 126.777 204.752 126.007 204.752 125.04V60.8742C204.752 59.9198 203.975 59.1367 202.999 59.1367H85.5903L140.152 27.9226H207.37C208.815 27.9226 210 26.7602 210 25.3163V14.1326C210 13.1292 209.37 11.7833 208.592 11.147V11.1592ZM188.998 74.7498V111.164H21.0025V74.7498H188.998ZM43.0297 262.401H44.6102C43.6595 264.763 42.326 266.549 40.585 267.749C38.8564 268.948 37.0661 269.535 35.2264 269.535C33.9793 269.535 32.7569 269.229 31.5716 268.617C30.3739 268.006 29.4973 267.125 28.9293 265.974C28.3614 264.824 28.0774 263.062 28.0774 260.664V238.358H22.1878V237.159C23.6818 236.632 25.2005 235.727 26.7562 234.454C28.312 233.182 29.6949 231.689 30.9172 229.952C31.5346 229.034 32.4112 227.357 33.5101 224.923H34.7695V235.825H43.4619V238.358H34.7695V259.869C34.7695 262.022 35.1152 263.466 35.8067 264.212C36.4981 264.959 37.3871 265.338 38.4613 265.338C39.3503 265.338 40.227 265.093 41.0542 264.592C41.8938 264.102 42.5482 263.368 43.0051 262.401H43.0297ZM66.9461 234.846C63.8594 234.846 60.9331 235.568 58.1797 236.999C55.4139 238.431 53.1914 240.658 51.4999 243.668C49.8083 246.678 48.9564 249.7 48.9564 252.735C48.9564 256.907 50.3516 260.676 53.1421 264.029C56.4387 268.018 60.896 270 66.5016 270C69.9342 270 73.058 269.229 75.8608 267.687C78.6636 266.146 80.8614 263.845 82.4541 260.811C84.0469 257.764 84.8495 254.766 84.8495 251.793C84.8495 247.571 83.4049 243.827 80.5033 240.56C77.0955 236.743 72.5764 234.834 66.9461 234.834V234.846ZM74.7495 264.543C73.0456 266.476 70.8725 267.443 68.2549 267.443C64.736 267.443 61.8962 265.693 59.7478 262.193C57.5994 258.694 56.5252 254.534 56.5252 249.7C56.5252 246.703 56.9697 244.255 57.871 242.347C58.76 240.438 59.933 239.104 61.3776 238.345C62.8222 237.587 64.2668 237.207 65.6991 237.207C68.6747 237.207 71.1318 238.37 73.0456 240.682C75.8855 244.06 77.3054 248.697 77.3054 254.595C77.3054 259.306 76.4534 262.622 74.7495 264.555V264.543ZM146.82 267.125C147.548 267.504 148.746 267.687 150.388 267.687V268.997H132.028V267.687H132.793C134.386 267.687 135.633 267.406 136.535 266.855C137.152 266.464 137.609 265.852 137.88 265.008C137.992 264.592 138.041 263.429 138.041 261.496V247.229C138.041 244.525 137.671 242.616 136.942 241.502C135.88 239.961 134.189 239.19 131.867 239.19C130.435 239.19 128.99 239.508 127.546 240.144C126.101 240.78 124.348 241.98 122.286 243.717L122.2 244.121L122.286 245.675V261.496C122.286 263.76 122.434 265.179 122.718 265.73C123.002 266.28 123.533 266.745 124.323 267.125C125.113 267.504 126.447 267.687 128.348 267.687V268.997H109.544V267.687C111.606 267.687 113.013 267.467 113.791 267.039C114.557 266.598 115.1 265.95 115.396 265.081C115.532 264.665 115.594 263.478 115.594 261.496V247.229C115.594 244.525 115.149 242.579 114.248 241.392C113.05 239.85 111.396 239.08 109.247 239.08C107.79 239.08 106.333 239.434 104.901 240.132C102.654 241.196 100.925 242.396 99.7031 243.717V261.496C99.7031 263.674 99.8759 265.081 100.209 265.73C100.543 266.378 101.049 266.868 101.716 267.198C102.382 267.528 103.728 267.687 105.753 267.687V268.997H87.3559V267.687C89.0599 267.687 90.2575 267.528 90.9243 267.198C91.6034 266.868 92.1096 266.354 92.4677 265.644C92.8257 264.934 92.9986 263.552 92.9986 261.496V248.819C92.9986 245.173 92.8751 242.824 92.6282 241.759C92.443 240.964 92.1466 240.413 91.7392 240.107C91.3317 239.801 90.7761 239.655 90.0723 239.655C89.3191 239.655 88.4055 239.838 87.3559 240.193L86.7509 238.884L97.9621 234.834H99.7031V241.894C102.407 239.483 104.012 238.088 104.494 237.734C105.716 236.816 107.025 236.106 108.433 235.592C109.84 235.091 111.235 234.834 112.618 234.834C114.952 234.834 116.952 235.433 118.631 236.645C120.31 237.856 121.434 239.606 122.002 241.894C124.792 238.994 127.151 237.097 129.065 236.192C130.991 235.286 132.966 234.834 134.991 234.834C137.016 234.834 138.72 235.286 140.251 236.192C141.782 237.097 142.992 238.578 143.881 240.634C144.474 242.028 144.77 244.231 144.77 247.229V261.496C144.77 263.576 144.943 264.995 145.301 265.766C145.573 266.292 146.067 266.745 146.807 267.125H146.82ZM169.884 234.846C166.797 234.846 163.871 235.568 161.118 236.999C158.352 238.431 156.129 240.658 154.438 243.668C152.746 246.678 151.894 249.7 151.894 252.735C151.894 256.907 153.29 260.676 156.08 264.029C159.377 268.018 163.834 270 169.44 270C172.872 270 175.996 269.229 178.799 267.687C181.602 266.146 183.799 263.845 185.392 260.811C186.985 257.764 187.788 254.766 187.788 251.793C187.788 247.571 186.343 243.827 183.441 240.56C180.034 236.743 175.514 234.834 169.884 234.834V234.846ZM177.688 264.543C175.984 266.476 173.811 267.443 171.193 267.443C167.674 267.443 164.834 265.693 162.686 262.193C160.537 258.694 159.463 254.534 159.463 249.7C159.463 246.703 159.908 244.255 160.809 242.347C161.698 240.438 162.871 239.104 164.316 238.345C165.76 237.587 167.205 237.207 168.637 237.207C171.613 237.207 174.07 238.37 175.984 240.682C178.823 244.06 180.243 248.697 180.243 254.595C180.243 259.306 179.391 262.622 177.688 264.555V264.543Z" fill="black"/>
</svg>
